<?xml version='1.0' encoding='ascii'?>
<svg xmlns="http://www.w3.org/2000/svg" height="540" version="1.1" width="650">
    <g id="RenderLayer_LineSet" inkscape:groupmode="lineset" inkscape:label="RenderLayer_LineSet" xmlns:inkscape="http://www.inkscape.org/namespaces/inkscape">
        <g id="strokes" inkscape:groupmode="layer" inkscape:label="strokes" xmlns:inkscape="http://www.inkscape.org/namespaces/inkscape">
            <path d=" M 20.602, 472.224 20.602, 462.224 20.602, 452.224 20.602, 442.224 20.602, 432.224 20.602, 422.224 20.602, 412.224 20.602, 402.224 20.602, 392.224 20.602, 382.224 20.602, 372.224 20.602, 362.224 20.602, 352.224 20.602, 342.224 20.602, 332.224 20.602, 322.224 20.602, 312.224 20.602, 302.224 20.602, 292.224 20.602, 282.224 20.602, 272.224 20.602, 262.224 20.602, 252.224 20.602, 242.224 20.602, 232.224 20.602, 222.224 20.602, 212.224 20.602, 202.224 20.602, 192.224 20.602, 182.224 20.602, 172.224 20.602, 162.224 20.602, 152.224 20.602, 142.224 20.602, 132.224 20.602, 122.224 20.602, 112.224 20.602, 102.224 20.602, 92.224 20.602, 82.224 20.602, 72.224 20.602, 67.776 21.514, 58.538 24.215, 49.655 28.600, 41.469 34.502, 34.293 41.693, 28.405 49.897, 24.029 58.800, 21.334 68.058, 20.424 78.058, 20.424 88.058, 20.424 98.058, 20.424 108.058, 20.424 118.058, 20.424 128.058, 20.424 138.058, 20.424 148.058, 20.424 158.058, 20.424 168.058, 20.424 178.058, 20.424 188.058, 20.424 198.058, 20.424 208.058, 20.424 218.058, 20.424 228.058, 20.424 238.058, 20.424 248.058, 20.424 258.058, 20.424 268.058, 20.424 278.058, 20.424 288.058, 20.424 298.058, 20.424 308.058, 20.424 318.058, 20.424 328.058, 20.424 338.058, 20.424 348.058, 20.424 358.058, 20.424 368.058, 20.424 378.058, 20.424 388.058, 20.424 398.058, 20.424 408.058, 20.424 418.058, 20.424 428.058, 20.424 438.058, 20.424 448.058, 20.424 458.058, 20.424 468.058, 20.424 478.058, 20.424 488.058, 20.424 498.058, 20.424 508.058, 20.424 518.058, 20.424 528.058, 20.424 538.058, 20.424 548.058, 20.424 558.058, 20.424 568.058, 20.424 581.942, 20.424 591.200, 21.334 600.103, 24.029 608.307, 28.405 615.498, 34.293 621.400, 41.469 625.786, 49.655 628.486, 58.538 629.398, 67.776 629.398, 77.776 629.398, 87.776 629.398, 97.776 629.398, 107.776 629.398, 117.776 629.398, 127.776 629.398, 137.776 629.398, 147.776 629.398, 157.776 629.398, 167.776 629.398, 177.776 629.398, 187.776 629.398, 197.776 629.398, 207.776 629.398, 217.776 629.398, 227.776 629.398, 237.776 629.398, 247.776 629.398, 257.776 629.398, 267.776 629.398, 277.776 629.398, 287.776 629.398, 297.776 629.398, 307.776 629.398, 317.776 629.398, 327.776 629.398, 337.776 629.398, 347.776 629.398, 357.776 629.398, 367.776 629.398, 377.776 629.398, 387.776 629.398, 397.776 629.398, 407.776 629.398, 417.776 629.398, 427.776 629.398, 437.776 629.398, 447.776 629.398, 457.776 629.398, 467.776 629.398, 472.224 628.486, 481.462 625.785, 490.345 621.400, 498.531 615.498, 505.707 608.307, 511.595 600.103, 515.971 591.200, 518.666 581.942, 519.576 571.942, 519.576 561.942, 519.576 551.942, 519.576 541.942, 519.576 531.942, 519.576 521.942, 519.576 511.942, 519.576 501.942, 519.576 491.942, 519.576 481.942, 519.576 471.942, 519.576 461.942, 519.576 451.942, 519.576 441.942, 519.576 431.942, 519.576 421.942, 519.576 411.942, 519.576 401.942, 519.576 391.942, 519.576 381.942, 519.576 371.942, 519.576 361.942, 519.576 351.942, 519.576 341.942, 519.576 331.942, 519.576 321.942, 519.576 311.942, 519.576 301.942, 519.576 291.942, 519.576 281.942, 519.576 271.942, 519.576 261.942, 519.576 251.942, 519.576 241.942, 519.576 231.942, 519.576 221.942, 519.576 211.942, 519.576 201.942, 519.576 191.942, 519.576 181.942, 519.576 171.942, 519.576 161.942, 519.576 151.942, 519.576 141.942, 519.576 131.942, 519.576 121.942, 519.576 111.942, 519.576 101.942, 519.576 91.942, 519.576 81.942, 519.576 68.058, 519.576 58.800, 518.666 49.897, 515.971 41.693, 511.595 34.502, 505.707 28.600, 498.531 24.214, 490.345 21.514, 481.462 20.602, 472.224 " fill="none" stroke="rgb(0, 0, 0)" stroke-linecap="butt" stroke-linejoin="round" stroke-opacity="1.0" stroke-width="3.0" />
            <path d=" M 8.460, 480.753 8.460, 470.753 8.460, 460.753 8.460, 450.753 8.460, 440.753 8.460, 430.753 8.460, 420.753 8.460, 410.753 8.460, 400.753 8.460, 390.753 8.460, 380.753 8.460, 370.753 8.460, 360.753 8.460, 350.753 8.460, 340.753 8.460, 330.753 8.460, 320.753 8.460, 310.753 8.460, 300.753 8.460, 290.753 8.460, 280.753 8.460, 270.753 8.460, 260.753 8.460, 250.753 8.460, 240.753 8.460, 230.753 8.460, 220.753 8.460, 210.753 8.460, 200.753 8.460, 190.753 8.460, 180.753 8.460, 170.753 8.460, 160.753 8.460, 150.753 8.460, 140.753 8.460, 130.753 8.460, 120.753 8.460, 110.753 8.460, 100.753 8.460, 90.753 8.460, 80.753 8.460, 70.753 8.460, 59.247 9.408, 49.619 12.216, 40.362 16.776, 31.830 22.913, 24.352 30.392, 18.215 38.923, 13.655 48.181, 10.846 57.808, 9.898 67.808, 9.898 77.808, 9.898 87.808, 9.898 97.808, 9.898 107.808, 9.898 117.808, 9.898 127.808, 9.898 137.808, 9.898 147.808, 9.898 157.808, 9.898 167.808, 9.898 177.808, 9.898 187.808, 9.898 197.808, 9.898 207.808, 9.898 217.808, 9.898 227.808, 9.898 237.808, 9.898 247.808, 9.898 257.808, 9.898 267.808, 9.898 277.808, 9.898 287.808, 9.898 297.808, 9.898 307.808, 9.898 317.808, 9.898 327.808, 9.898 337.808, 9.898 347.808, 9.898 357.808, 9.898 367.808, 9.898 377.808, 9.898 387.808, 9.898 397.808, 9.898 407.808, 9.898 417.808, 9.898 427.808, 9.898 437.808, 9.898 447.808, 9.898 457.808, 9.898 467.808, 9.898 477.808, 9.898 487.808, 9.898 497.808, 9.898 507.808, 9.898 517.808, 9.898 527.808, 9.898 537.808, 9.898 547.808, 9.898 557.808, 9.898 567.808, 9.898 577.808, 9.898 592.192, 9.898 601.819, 10.846 611.077, 13.655 619.608, 18.215 627.087, 24.352 633.224, 31.830 637.784, 40.362 640.592, 49.619 641.540, 59.247 641.540, 69.247 641.540, 79.247 641.540, 89.247 641.540, 99.247 641.540, 109.247 641.540, 119.247 641.540, 129.247 641.540, 139.247 641.540, 149.247 641.540, 159.247 641.540, 169.247 641.540, 179.247 641.540, 189.247 641.540, 199.247 641.540, 209.247 641.540, 219.247 641.540, 229.247 641.540, 239.247 641.540, 249.247 641.540, 259.247 641.540, 269.247 641.540, 279.247 641.540, 289.247 641.540, 299.247 641.540, 309.247 641.540, 319.247 641.540, 329.247 641.540, 339.247 641.540, 349.247 641.540, 359.247 641.540, 369.247 641.540, 379.247 641.540, 389.247 641.540, 399.247 641.540, 409.247 641.540, 419.247 641.540, 429.247 641.540, 439.247 641.540, 449.247 641.540, 459.247 641.540, 469.247 641.540, 480.753 640.592, 490.381 637.784, 499.638 633.224, 508.170 627.087, 515.648 619.608, 521.785 611.077, 526.345 601.819, 529.154 592.192, 530.102 582.192, 530.102 572.192, 530.102 562.192, 530.102 552.192, 530.102 542.192, 530.102 532.192, 530.102 522.192, 530.102 512.192, 530.102 502.192, 530.102 492.192, 530.102 482.192, 530.102 472.192, 530.102 462.192, 530.102 452.192, 530.102 442.192, 530.102 432.192, 530.102 422.192, 530.102 412.192, 530.102 402.192, 530.102 392.192, 530.102 382.192, 530.102 372.192, 530.102 362.192, 530.102 352.192, 530.102 342.192, 530.102 332.192, 530.102 322.192, 530.102 312.192, 530.102 302.192, 530.102 292.192, 530.102 282.192, 530.102 272.192, 530.102 262.192, 530.102 252.192, 530.102 242.192, 530.102 232.192, 530.102 222.192, 530.102 212.192, 530.102 202.192, 530.102 192.192, 530.102 182.192, 530.102 172.192, 530.102 162.192, 530.102 152.192, 530.102 142.192, 530.102 132.192, 530.102 122.192, 530.102 112.192, 530.102 102.192, 530.102 92.192, 530.102 82.192, 530.102 72.192, 530.102 57.808, 530.102 48.181, 529.154 38.923, 526.345 30.392, 521.785 22.913, 515.648 16.776, 508.170 12.216, 499.638 9.408, 490.381 8.460, 480.753 " fill="none" stroke="rgb(0, 0, 0)" stroke-linecap="butt" stroke-linejoin="round" stroke-opacity="1.0" stroke-width="3.0" />
        </g>
    </g>
</svg>
