<?xml version='1.0' encoding='ascii'?>
<svg xmlns="http://www.w3.org/2000/svg" height="200" version="1.1" width="960">
    <g id="RenderLayer_LineSet" inkscape:groupmode="lineset" inkscape:label="RenderLayer_LineSet" xmlns:inkscape="http://www.inkscape.org/namespaces/inkscape">
        <g id="strokes" inkscape:groupmode="layer" inkscape:label="strokes" xmlns:inkscape="http://www.inkscape.org/namespaces/inkscape">
            <path d=" M 943.481, 200.174 948.482, 191.514 948.751, 191.048 943.750, 182.389 938.750, 173.729 933.749, 165.069 928.748, 156.409 923.747, 147.749 918.747, 139.089 913.746, 130.429 908.745, 121.770 903.745, 113.110 898.744, 104.450 893.743, 95.790 888.743, 87.130 883.742, 78.470 878.741, 69.811 873.741, 61.151 868.740, 52.491 863.739, 43.831 858.738, 35.171 853.738, 26.511 848.737, 17.851 843.736, 9.192 838.328, -0.174 833.328, 8.486 833.059, 8.952 838.059, 17.611 843.060, 26.271 848.061, 34.931 853.061, 43.591 858.062, 52.251 863.063, 60.911 868.064, 69.571 873.064, 78.230 878.065, 86.890 883.066, 95.550 888.066, 104.210 893.067, 112.870 898.068, 121.530 903.068, 130.190 908.069, 138.849 913.070, 147.509 918.070, 156.169 923.071, 164.829 928.072, 173.489 933.073, 182.149 938.073, 190.809 943.481, 200.174 " fill="none" stroke="rgb(0, 0, 0)" stroke-linecap="butt" stroke-linejoin="round" stroke-opacity="1.0" stroke-width="3.0" />
            <path d=" M 716.077, 191.048 721.077, 199.708 721.346, 200.174 726.347, 191.514 731.348, 182.854 736.348, 174.194 741.349, 165.535 746.350, 156.875 751.350, 148.215 756.351, 139.555 761.352, 130.895 766.353, 122.235 771.353, 113.575 776.354, 104.916 781.355, 96.256 786.355, 87.596 791.356, 78.936 796.357, 70.276 801.357, 61.616 806.358, 52.956 811.359, 44.297 816.359, 35.637 821.360, 26.977 826.361, 18.317 831.769, 8.952 826.768, 0.292 826.499, -0.174 821.499, 8.486 816.498, 17.146 811.497, 25.806 806.497, 34.465 801.496, 43.125 796.495, 51.785 791.495, 60.445 786.494, 69.105 781.493, 77.765 776.492, 86.425 771.492, 95.084 766.491, 103.744 761.490, 112.404 756.490, 121.064 751.489, 129.724 746.488, 138.384 741.488, 147.044 736.487, 155.703 731.486, 164.363 726.486, 173.023 721.485, 181.683 716.077, 191.048 " fill="none" stroke="rgb(0, 0, 0)" stroke-linecap="butt" stroke-linejoin="round" stroke-opacity="1.0" stroke-width="3.0" />
            <path d=" M 709.470, 200.174 714.471, 191.514 714.740, 191.048 709.739, 182.389 704.739, 173.729 699.738, 165.069 694.737, 156.409 689.737, 147.749 684.736, 139.089 679.735, 130.429 674.734, 121.770 669.734, 113.110 664.733, 104.450 659.732, 95.790 654.732, 87.130 649.731, 78.470 644.730, 69.811 639.730, 61.151 634.729, 52.491 629.728, 43.831 624.728, 35.171 619.727, 26.511 614.726, 17.851 609.725, 9.192 604.317, -0.174 599.317, 8.486 599.048, 8.952 604.048, 17.611 609.049, 26.271 614.050, 34.931 619.051, 43.591 624.051, 52.251 629.052, 60.911 634.053, 69.571 639.053, 78.230 644.054, 86.890 649.055, 95.550 654.055, 104.210 659.056, 112.870 664.057, 121.530 669.057, 130.190 674.058, 138.849 679.059, 147.509 684.060, 156.169 689.060, 164.829 694.061, 173.489 699.062, 182.149 704.062, 190.809 709.470, 200.174 " fill="none" stroke="rgb(0, 0, 0)" stroke-linecap="butt" stroke-linejoin="round" stroke-opacity="1.0" stroke-width="3.0" />
            <path d=" M 482.066, 191.048 487.066, 199.708 487.335, 200.174 492.336, 191.514 497.337, 182.854 502.337, 174.194 507.338, 165.535 512.339, 156.875 517.340, 148.215 522.340, 139.555 527.341, 130.895 532.342, 122.235 537.342, 113.575 542.343, 104.916 547.344, 96.256 552.344, 87.596 557.345, 78.936 562.346, 70.276 567.346, 61.616 572.347, 52.956 577.348, 44.297 582.349, 35.637 587.349, 26.977 592.350, 18.317 597.758, 8.952 592.757, 0.292 592.489, -0.174 587.488, 8.486 582.487, 17.146 577.486, 25.806 572.486, 34.465 567.485, 43.125 562.484, 51.785 557.484, 60.445 552.483, 69.105 547.482, 77.765 542.482, 86.425 537.481, 95.084 532.480, 103.744 527.479, 112.404 522.479, 121.064 517.478, 129.724 512.477, 138.384 507.477, 147.044 502.476, 155.703 497.475, 164.363 492.475, 173.023 487.474, 181.683 482.066, 191.048 " fill="none" stroke="rgb(0, 0, 0)" stroke-linecap="butt" stroke-linejoin="round" stroke-opacity="1.0" stroke-width="3.0" />
            <path d=" M 475.460, 200.174 480.460, 191.514 480.729, 191.048 475.728, 182.389 470.728, 173.729 465.727, 165.069 460.726, 156.409 455.726, 147.749 450.725, 139.089 445.724, 130.429 440.724, 121.770 435.723, 113.110 430.722, 104.450 425.722, 95.790 420.721, 87.130 415.720, 78.470 410.719, 69.810 405.719, 61.151 400.718, 52.491 395.717, 43.831 390.717, 35.171 385.716, 26.511 380.715, 17.851 375.715, 9.192 370.306, -0.174 365.306, 8.486 365.037, 8.952 370.038, 17.611 375.038, 26.271 380.039, 34.931 385.040, 43.591 390.040, 52.251 395.041, 60.911 400.042, 69.571 405.042, 78.230 410.043, 86.890 415.044, 95.550 420.044, 104.210 425.045, 112.870 430.046, 121.530 435.047, 130.190 440.047, 138.849 445.048, 147.509 450.049, 156.169 455.049, 164.829 460.050, 173.489 465.051, 182.149 470.051, 190.809 475.460, 200.174 " fill="none" stroke="rgb(0, 0, 0)" stroke-linecap="butt" stroke-linejoin="round" stroke-opacity="1.0" stroke-width="3.0" />
            <path d=" M 248.055, 191.048 253.055, 199.708 253.324, 200.174 258.325, 191.514 263.326, 182.854 268.326, 174.194 273.327, 165.535 278.328, 156.875 283.329, 148.215 288.329, 139.555 293.330, 130.895 298.331, 122.235 303.331, 113.575 308.332, 104.916 313.333, 96.256 318.333, 87.596 323.334, 78.936 328.335, 70.276 333.336, 61.616 338.336, 52.956 343.337, 44.297 348.338, 35.637 353.338, 26.977 358.339, 18.317 363.747, 8.952 358.746, 0.292 358.478, -0.174 353.477, 8.486 348.476, 17.146 343.475, 25.806 338.475, 34.465 333.474, 43.125 328.473, 51.785 323.473, 60.445 318.472, 69.105 313.471, 77.765 308.471, 86.425 303.470, 95.084 298.469, 103.744 293.469, 112.404 288.468, 121.064 283.467, 129.724 278.466, 138.384 273.466, 147.044 268.465, 155.703 263.464, 164.363 258.464, 173.023 253.463, 181.683 248.055, 191.048 " fill="none" stroke="rgb(0, 0, 0)" stroke-linecap="butt" stroke-linejoin="round" stroke-opacity="1.0" stroke-width="3.0" />
            <path d=" M 241.449, 200.174 246.449, 191.514 246.718, 191.048 241.718, 182.389 236.717, 173.729 231.716, 165.069 226.715, 156.409 221.715, 147.749 216.714, 139.089 211.713, 130.429 206.713, 121.770 201.712, 113.110 196.711, 104.450 191.711, 95.790 186.710, 87.130 181.709, 78.470 176.709, 69.810 171.708, 61.151 166.707, 52.491 161.706, 43.831 156.706, 35.171 151.705, 26.511 146.704, 17.851 141.704, 9.192 136.296, -0.174 131.295, 8.486 131.026, 8.952 136.027, 17.611 141.027, 26.271 146.028, 34.931 151.029, 43.591 156.029, 52.251 161.030, 60.911 166.031, 69.571 171.031, 78.230 176.032, 86.890 181.033, 95.550 186.034, 104.210 191.034, 112.870 196.035, 121.530 201.036, 130.190 206.036, 138.849 211.037, 147.509 216.038, 156.169 221.038, 164.829 226.039, 173.489 231.040, 182.149 236.040, 190.809 241.449, 200.174 " fill="none" stroke="rgb(0, 0, 0)" stroke-linecap="butt" stroke-linejoin="round" stroke-opacity="1.0" stroke-width="3.0" />
            <path d=" M 14.044, 191.048 19.045, 199.708 19.314, 200.174 24.314, 191.514 29.315, 182.854 34.316, 174.194 39.316, 165.535 44.317, 156.875 49.318, 148.215 54.318, 139.555 59.319, 130.895 64.320, 122.235 69.320, 113.575 74.321, 104.916 79.322, 96.256 84.323, 87.596 89.323, 78.936 94.324, 70.276 99.325, 61.616 104.325, 52.956 109.326, 44.297 114.327, 35.637 119.327, 26.977 124.328, 18.317 129.736, 8.952 124.736, 0.292 124.467, -0.174 119.466, 8.486 114.465, 17.146 109.465, 25.806 104.464, 34.465 99.463, 43.125 94.462, 51.785 89.462, 60.445 84.461, 69.105 79.460, 77.765 74.460, 86.425 69.459, 95.084 64.458, 103.744 59.458, 112.404 54.457, 121.064 49.456, 129.724 44.456, 138.384 39.455, 147.044 34.454, 155.703 29.453, 164.363 24.453, 173.023 19.452, 181.683 14.044, 191.048 " fill="none" stroke="rgb(0, 0, 0)" stroke-linecap="butt" stroke-linejoin="round" stroke-opacity="1.0" stroke-width="3.0" />
        </g>
    </g>
</svg>
